' Copyright (c) 2025 Franz Steinkress
' Licensed under the MIT License - see LICENSE for details
@startuml
skinparam nodesep 50
skinparam classBackgroundColor #F2CC8F

interface Target {
    + {abstract} request(): void
}
class Adaptee {
    + specificRequest(): void
}
class Adapter {
    + request(): void
}
class Client {
    - target: std::shared_ptr<Target>
    + Client(target: std::shared_ptr<Target>)
    + execute(): void
}

Target <|.. Adapter
Adapter -right-|> Adaptee: Implementierung
Client .left.> Target
@enduml
