' Copyright (c) 2025 Franz Steinkress
' Licensed under the MIT License - see LICENSE for details
@startuml
skinparam nodesep 120
skinparam linetype ortho
skinparam classBackgroundColor #F2CC8F

interface Subject {
    + {abstract} request() const: void
}
class RealSubject {
    + request() const: void
}
class Proxy {
    - realSubject: 
      std::unique_ptr<RealSubject>
    + request() const: void
}
class Client {
    + {static} execute(subject: const Subject&): void
}

Subject <|.. RealSubject
Subject <|.. Proxy
Proxy -left-> RealSubject: "delegates to\nrealSubject"
Client ..> Subject
@enduml
