' Copyright (c) 2025 Franz Steinkress
' Licensed under the MIT License - see LICENSE for details
@startuml
skinparam nodesep 50
skinparam linetype ortho
skinparam classBackgroundColor #B2C9AB

interface State {
    + {abstract} handle(context: Context&): void
}
class ConcreteStateA {
    + handle(context: Context&): void
}
class ConcreteStateB {
    + handle(context: Context&): void
}
class Context {
    - state: std::shared_ptr<State>
    + Context(initialState: std::shared_ptr<State>)
    + setState(newState: 
      std::shared_ptr<State>): void
    + request(): void
}
class Client {
    + main(): int
}

State <|.. ConcreteStateA
State <|.. ConcreteStateB
Context o-right-> State
Client ..> Context
@enduml
