' Copyright (c) 2025 Franz Steinkress
' Licensed under the MIT License - see LICENSE for details
@startuml
skinparam ranksep 100
skinparam linetype ortho
skinparam classBackgroundColor #F2CC8F

interface Component {
    + {abstract} operation(): void
}
class Leaf {
    + operation(): void
}
class Composite {
    - children: std::vector<std::shared_ptr<Component>>
    + operation() const : void
    + add(component: std::shared_ptr<Component>): void
    + remove(component: std::shared_ptr<Component>): void
    + getChild(index: int): std::shared_ptr<Component>
}
entity Client {
    + main(): int
}

Component <|.. Leaf
Component <|.. Composite
Composite o--> "1..* " Component
Client .left.> Component
@enduml
