' Copyright (c) 2025 Franz Steinkress
' Licensed under the MIT License - see LICENSE for details
@startuml
skinparam linetype ortho
skinparam classBackgroundColor #B2C9AB

abstract class AbstractClass {
    # {abstract} primitiveOperation1() const: void
    # {abstract} primitiveOperation2() const: void
    # hook() const: void
    + templateMethod() const: void
}
class ConcreteClassA {
    # primitiveOperation1() const: void
    # primitiveOperation2() const: void
}
class ConcreteClassB {
    # primitiveOperation1() const: void
    # primitiveOperation2() const: void
    # hook(): void
}
class Client {
    + clientCode(): void
    + main(): int
}

AbstractClass <|-- ConcreteClassA
AbstractClass <|-- ConcreteClassB
Client ..> AbstractClass
@enduml
