' Copyright (c) 2025 Franz Steinkress
' Licensed under the MIT License - see LICENSE for details
@startuml
skinparam linetype ortho
skinparam classBackgroundColor #F2CC8F

package "Subsysteme" {
    class SubsystemClassA {
        - subsystemOperation1()
        - subsystemOperation2()
    }
    class SubsystemClassB {
        - subsystemOperation3()
        - subsystemOperation4()
    }
    class SubsystemClassC {
        - subsystemOperation5()
        - subsystemOperation6()
    }
}
class Facade {
    + facadeOperation1()
    + facadeOperation2()
    - subsystemClassA: SubsystemClassA
    - subsystemClassB: SubsystemClassB
    - subsystemClassC: SubsystemClassC
}
entity Client {
    + main(): int
}

Facade ..> SubsystemClassA
Facade ..> SubsystemClassB
Facade ..> SubsystemClassC
Client ..> Facade
@enduml
