' Copyright (c) 2025 Franz Steinkress
' Licensed under the MIT License - see LICENSE for details
@startuml
skinparam linetype ortho
skinparam classBackgroundColor #B2C9AB

interface Command {
    + {abstract} execute(): void
}
class ConcreteCommand1 {
    - receiver: Receiver*
    + execute(): void
}
class ConcreteCommand2 {
    - receiver: Receiver*
    + execute(): void
}
class Receiver {
    + action1(): void
    + action2(): void
}
class Invoker {
    - command: std::shared_ptr<Command>
    + setCommand(command: 
      std::shared_ptr<Command>): void
    + executeCommand(): void
}
class Client {
    + main(): void
}

Command <|.. ConcreteCommand1
Command <|.. ConcreteCommand2
ConcreteCommand1 --> Receiver
ConcreteCommand2 -left-> Receiver
Invoker o-right-> Command
Invoker -[hidden]down-> Receiver
Client .right.> Invoker
Client ..> Receiver
@enduml
